# xmcd
#
# Track frame offsets: 
#        150
#        29015
#        45278
#        55716
#        87931
#        112082
#        136825
#        145509
#        176712
#        210224
#        227266
#        255955
#        274094
#        298601
#        317875
#
# Disc length: 4405 seconds
#
# Revision: 0
# Processed by: cddbd v1.5.2PL0 Copyright (c) Steve Scherf et al.
# Submitted via: ExactAudioCopy v1.0b1
#
DISCID=c711330f
DTITLE=Various Artist - Four Important Musical Instruments CD2 Er Hu
DYEAR=2005
DGENRE=Classical
TTITLE0=Moon Reflects on the Er-Quan Spring
TTITLE1=Birds Singing in Quiet Valley
TTITLE2=Horse Racing
TTITLE3=Song of Sickliness
TTITLE4=Music on a Single String
TTITLE5=Passing Yangguan
TTITLE6=A tune of Su-Nan Region
TTITLE7=Abyss of Misery
TTITLE8=Singing in Idle House
TTITLE9=Listening to the Pine Rock
TTITLE10=At Moon Night
TTITLE11=Flickering Light of A Candle
TTITLE12=Wonderful Night
TTITLE13=Marching to the Brightness
TTITLE14=Sad Melody
EXTD=
EXTT0=
EXTT1=
EXTT2=
EXTT3=
EXTT4=
EXTT5=
EXTT6=
EXTT7=
EXTT8=
EXTT9=
EXTT10=
EXTT11=
EXTT12=
EXTT13=
EXTT14=
PLAYORDER=
